<?xml version="1.0" encoding="UTF-8"?>
<svg width="910px" height="269px" viewBox="0 0 910 269" version="1.1" xmlns="http://www.w3.org/2000/svg" xmlns:xlink="http://www.w3.org/1999/xlink">
    <title>Artboard</title>
    <g id="Artboard" stroke="none" stroke-width="1" fill="none" fill-rule="evenodd">
        <rect fill="#FFFFFF" x="0" y="0" width="910" height="269"></rect>
        <g id="css-svgrepo-com" transform="translate(33.000000, 117.000000)" fill-rule="nonzero">
            <path d="M31.485,0 L2.463,0 C1.655,0 1,0.655 1,1.926 L1,55 C1,55.345 1.655,56 2.463,56 L42.537,56 C43.345,56 44,55.345 44,55 L44,12.978 C44,12.282 43.907,12.058 43.743,11.893 L32.107,0.257 C31.942,0.093 31.718,0 31.485,0 Z" id="Path" fill="#E9E9E0"></path>
            <polygon id="Path" fill="#D9D7CA" points="31.5 0.151 31.5 12 43.349 12"></polygon>
            <path d="M42.037,56 L1.963,56 C1.155,56 0.5,55.345 0.5,54.537 L0.5,39 L43.5,39 L43.5,54.537 C43.5,55.345 42.845,56 42.037,56 Z" id="Path" fill="#0096E6"></path>
            <g id="Group" transform="translate(10.000000, 42.000000)" fill="#FFFFFF">
                <path d="M7.58,9.975 C7.206,10.339 6.782,10.613 6.309,10.795 C5.836,10.977 5.325,11.068 4.778,11.068 C4.176,11.068 3.623,10.959 3.117,10.74 C2.611,10.521 2.169,10.198 1.791,9.769 C1.413,9.34 1.116,8.803 0.902,8.156 C0.688,7.509 0.581,6.761 0.581,5.914 C0.581,5.067 0.688,4.321 0.902,3.679 C1.116,3.036 1.413,2.501 1.791,2.073 C2.169,1.645 2.613,1.319 3.124,1.095 C3.635,0.871 4.186,0.76 4.778,0.76 C5.325,0.76 5.836,0.851 6.309,1.033 C6.782,1.215 7.206,1.489 7.58,1.853 L6.445,2.865 C6.217,2.6 5.965,2.409 5.686,2.291 C5.407,2.173 5.119,2.113 4.818,2.113 C4.481,2.113 4.16,2.176 3.854,2.304 C3.548,2.432 3.275,2.648 3.034,2.953 C2.793,3.258 2.603,3.652 2.467,4.136 C2.331,4.62 2.257,5.211 2.248,5.913 C2.257,6.597 2.328,7.18 2.46,7.663 C2.592,8.146 2.774,8.54 3.007,8.846 C3.24,9.152 3.504,9.374 3.8,9.516 C4.096,9.658 4.408,9.728 4.737,9.728 C5.066,9.728 5.373,9.668 5.66,9.55 C5.947,9.432 6.209,9.24 6.446,8.976 L7.58,9.975 Z" id="Path"></path>
                <path d="M15.633,8.238 C15.633,8.602 15.558,8.956 15.407,9.298 C15.256,9.64 15.045,9.941 14.771,10.2 C14.497,10.459 14.161,10.667 13.759,10.822 C13.357,10.977 12.903,11.054 12.392,11.054 C12.173,11.054 11.948,11.042 11.715,11.02 C11.482,10.998 11.248,10.958 11.011,10.904 C10.774,10.85 10.548,10.774 10.334,10.678 C10.12,10.582 9.936,10.466 9.78,10.329 L10.067,9.153 C10.195,9.226 10.356,9.297 10.552,9.365 C10.748,9.433 10.95,9.497 11.16,9.556 C11.37,9.615 11.579,9.663 11.789,9.7 C11.999,9.737 12.194,9.755 12.377,9.755 C12.933,9.755 13.359,9.625 13.655,9.365 C13.951,9.105 14.099,8.72 14.099,8.21 C14.099,7.9 13.995,7.636 13.785,7.417 C13.575,7.198 13.313,7 12.999,6.822 C12.685,6.644 12.345,6.467 11.98,6.289 C11.615,6.111 11.274,5.901 10.955,5.66 C10.636,5.419 10.372,5.134 10.162,4.806 C9.952,4.478 9.848,4.068 9.848,3.576 C9.848,3.13 9.93,2.733 10.094,2.387 C10.258,2.041 10.479,1.746 10.757,1.505 C11.035,1.264 11.359,1.079 11.728,0.951 C12.097,0.823 12.487,0.76 12.897,0.76 C13.316,0.76 13.74,0.799 14.168,0.876 C14.596,0.953 14.942,1.079 15.207,1.252 C15.152,1.37 15.089,1.5 15.016,1.642 C14.943,1.784 14.874,1.915 14.811,2.038 C14.748,2.161 14.693,2.264 14.647,2.346 C14.601,2.428 14.574,2.474 14.565,2.483 C14.51,2.456 14.449,2.42 14.38,2.374 C14.311,2.328 14.214,2.283 14.086,2.237 C13.958,2.191 13.79,2.16 13.58,2.141 C13.37,2.122 13.101,2.127 12.773,2.155 C12.59,2.174 12.418,2.225 12.253,2.312 C12.088,2.399 11.943,2.505 11.815,2.633 C11.687,2.761 11.587,2.904 11.514,3.064 C11.441,3.224 11.405,3.377 11.405,3.522 C11.405,3.886 11.509,4.18 11.719,4.404 C11.929,4.628 12.189,4.823 12.498,4.992 C12.807,5.161 13.145,5.325 13.51,5.484 C13.875,5.643 14.214,5.838 14.529,6.065 C14.844,6.292 15.105,6.578 15.315,6.919 C15.525,7.26 15.633,7.7 15.633,8.238 Z" id="Path"></path>
                <path d="M23.043,8.238 C23.043,8.602 22.968,8.956 22.817,9.298 C22.666,9.64 22.455,9.941 22.181,10.2 C21.907,10.459 21.571,10.667 21.169,10.822 C20.767,10.977 20.313,11.054 19.802,11.054 C19.583,11.054 19.358,11.042 19.125,11.02 C18.892,10.998 18.658,10.958 18.421,10.904 C18.184,10.85 17.958,10.774 17.744,10.678 C17.53,10.582 17.346,10.466 17.19,10.329 L17.477,9.153 C17.605,9.226 17.766,9.297 17.962,9.365 C18.158,9.433 18.36,9.497 18.57,9.556 C18.78,9.615 18.989,9.663 19.199,9.7 C19.409,9.737 19.604,9.755 19.787,9.755 C20.343,9.755 20.769,9.625 21.065,9.365 C21.361,9.105 21.509,8.72 21.509,8.21 C21.509,7.9 21.405,7.636 21.195,7.417 C20.985,7.198 20.723,7 20.409,6.822 C20.095,6.644 19.755,6.467 19.39,6.289 C19.025,6.111 18.684,5.901 18.365,5.66 C18.046,5.419 17.782,5.134 17.572,4.806 C17.362,4.478 17.258,4.068 17.258,3.576 C17.258,3.13 17.34,2.733 17.504,2.387 C17.668,2.041 17.889,1.746 18.167,1.505 C18.445,1.264 18.769,1.079 19.138,0.951 C19.507,0.823 19.897,0.76 20.307,0.76 C20.726,0.76 21.15,0.799 21.578,0.876 C22.006,0.953 22.352,1.079 22.617,1.252 C22.562,1.37 22.499,1.5 22.426,1.642 C22.353,1.784 22.284,1.915 22.221,2.038 C22.158,2.161 22.103,2.264 22.057,2.346 C22.011,2.428 21.984,2.474 21.975,2.483 C21.92,2.456 21.859,2.42 21.79,2.374 C21.721,2.328 21.624,2.283 21.496,2.237 C21.368,2.191 21.2,2.16 20.99,2.141 C20.78,2.122 20.511,2.127 20.183,2.155 C20,2.174 19.828,2.225 19.663,2.312 C19.498,2.399 19.353,2.505 19.225,2.633 C19.097,2.761 18.997,2.904 18.924,3.064 C18.851,3.224 18.815,3.377 18.815,3.522 C18.815,3.886 18.919,4.18 19.129,4.404 C19.339,4.628 19.599,4.823 19.908,4.992 C20.217,5.161 20.555,5.325 20.92,5.484 C21.285,5.643 21.624,5.838 21.939,6.065 C22.254,6.292 22.515,6.578 22.725,6.919 C22.935,7.26 23.043,7.7 23.043,8.238 Z" id="Path"></path>
            </g>
            <g id="Group" transform="translate(8.000000, 12.000000)" fill="#0096E6">
                <path d="M5.5,7 L5.5,3 C5.5,2.449 5.948,2 6.5,2 C7.053,2 7.5,1.552 7.5,1 C7.5,0.448 7.053,0 6.5,0 C4.846,0 3.5,1.346 3.5,3 L3.5,7 C3.5,8.103 2.603,9 1.5,9 C0.947,9 0.5,9.448 0.5,10 C0.5,10.552 0.947,11 1.5,11 C2.603,11 3.5,11.897 3.5,13 L3.5,17 C3.5,18.654 4.846,20 6.5,20 C7.053,20 7.5,19.552 7.5,19 C7.5,18.448 7.053,18 6.5,18 C5.948,18 5.5,17.551 5.5,17 L5.5,13 C5.5,11.8 4.958,10.734 4.118,10 C4.958,9.266 5.5,8.2 5.5,7 Z" id="Path"></path>
                <path d="M25.5,9 C24.397,9 23.5,8.103 23.5,7 L23.5,3 C23.5,1.346 22.154,0 20.5,0 C19.947,0 19.5,0.448 19.5,1 C19.5,1.552 19.947,2 20.5,2 C21.052,2 21.5,2.449 21.5,3 L21.5,7 C21.5,8.2 22.042,9.266 22.882,10 C22.042,10.734 21.5,11.8 21.5,13 L21.5,17 C21.5,17.551 21.052,18 20.5,18 C19.947,18 19.5,18.448 19.5,19 C19.5,19.552 19.947,20 20.5,20 C22.154,20 23.5,18.654 23.5,17 L23.5,13 C23.5,11.897 24.397,11 25.5,11 C26.053,11 26.5,10.552 26.5,10 C26.5,9.448 26.053,9 25.5,9 Z" id="Path"></path>
            </g>
        </g>
        <g id="javascript-svgrepo-com" transform="translate(33.000000, 196.000000)" fill-rule="nonzero">
            <path d="M30.985,0 L1.963,0 C1.155,0 0.5,0.655 0.5,1.926 L0.5,55 C0.5,55.345 1.155,56 1.963,56 L42.037,56 C42.845,56 43.5,55.345 43.5,55 L43.5,12.978 C43.5,12.282 43.407,12.058 43.243,11.893 L31.607,0.257 C31.442,0.093 31.218,0 30.985,0 Z" id="Path" fill="#E9E9E0"></path>
            <polygon id="Path" fill="#D9D7CA" points="31.5 0.151 31.5 12 43.349 12"></polygon>
            <path d="M42.037,56 L1.963,56 C1.155,56 0.5,55.345 0.5,54.537 L0.5,39 L43.5,39 L43.5,54.537 C43.5,55.345 42.845,56 42.037,56 Z" id="Path" fill="#EEAF4B"></path>
            <g id="Group" transform="translate(13.000000, 42.000000)" fill="#FFFFFF">
                <path d="M7.021,0.719 L7.021,8.567 C7.021,9.041 6.934,9.44 6.761,9.763 C6.587,10.086 6.355,10.346 6.064,10.542 C5.772,10.738 5.437,10.875 5.059,10.952 C4.681,11.029 4.29,11.068 3.89,11.068 C3.689,11.068 3.454,11.047 3.186,11.006 C2.918,10.965 2.639,10.902 2.352,10.815 C2.065,10.728 1.789,10.63 1.525,10.521 C1.26,10.412 1.037,10.289 0.855,10.152 L1.552,9.045 C1.643,9.108 1.773,9.175 1.942,9.243 C2.111,9.311 2.295,9.375 2.496,9.434 C2.696,9.494 2.906,9.545 3.125,9.591 C3.344,9.637 3.549,9.659 3.74,9.659 C4.222,9.659 4.608,9.565 4.895,9.379 C5.182,9.193 5.334,8.875 5.353,8.429 L5.353,0.718 L7.021,0.718 L7.021,0.719 Z" id="Path"></path>
                <path d="M15.184,8.238 C15.184,8.602 15.109,8.956 14.958,9.298 C14.807,9.64 14.596,9.941 14.322,10.2 C14.048,10.459 13.711,10.667 13.31,10.822 C12.909,10.977 12.453,11.054 11.943,11.054 C11.724,11.054 11.499,11.042 11.266,11.02 C11.033,10.998 10.798,10.958 10.562,10.904 C10.325,10.849 10.099,10.774 9.885,10.678 C9.671,10.582 9.486,10.466 9.331,10.329 L9.618,9.153 C9.745,9.226 9.907,9.297 10.103,9.365 C10.299,9.433 10.501,9.497 10.711,9.556 C10.92,9.616 11.13,9.663 11.34,9.7 C11.549,9.736 11.745,9.755 11.928,9.755 C12.484,9.755 12.91,9.625 13.206,9.365 C13.502,9.105 13.65,8.72 13.65,8.21 C13.65,7.9 13.545,7.636 13.336,7.417 C13.126,7.198 12.864,7 12.55,6.822 C12.236,6.644 11.896,6.467 11.531,6.289 C11.166,6.111 10.824,5.901 10.506,5.66 C10.187,5.419 9.922,5.134 9.713,4.806 C9.503,4.478 9.399,4.068 9.399,3.576 C9.399,3.13 9.481,2.733 9.645,2.387 C9.809,2.041 10.03,1.746 10.308,1.505 C10.586,1.264 10.91,1.079 11.279,0.951 C11.648,0.823 12.038,0.76 12.448,0.76 C12.867,0.76 13.291,0.799 13.719,0.876 C14.147,0.953 14.493,1.079 14.758,1.252 C14.703,1.37 14.639,1.5 14.567,1.642 C14.494,1.784 14.425,1.915 14.362,2.038 C14.298,2.161 14.243,2.264 14.198,2.346 C14.152,2.428 14.125,2.474 14.116,2.483 C14.061,2.456 14,2.42 13.931,2.374 C13.862,2.328 13.764,2.283 13.637,2.237 C13.509,2.191 13.34,2.16 13.131,2.141 C12.921,2.122 12.652,2.127 12.324,2.155 C12.141,2.174 11.969,2.225 11.804,2.312 C11.639,2.399 11.493,2.505 11.366,2.633 C11.238,2.761 11.137,2.904 11.065,3.064 C10.992,3.223 10.956,3.377 10.956,3.522 C10.956,3.886 11.06,4.18 11.27,4.404 C11.479,4.628 11.739,4.823 12.049,4.992 C12.359,5.161 12.695,5.325 13.061,5.484 C13.425,5.643 13.765,5.838 14.08,6.065 C14.395,6.292 14.656,6.578 14.866,6.919 C15.078,7.261 15.184,7.7 15.184,8.238 Z" id="Path"></path>
            </g>
            <g id="Group" transform="translate(8.000000, 12.000000)" fill="#EEAF4B">
                <path d="M5.5,7 L5.5,3 C5.5,2.449 5.948,2 6.5,2 C7.053,2 7.5,1.552 7.5,1 C7.5,0.448 7.053,0 6.5,0 C4.846,0 3.5,1.346 3.5,3 L3.5,7 C3.5,8.103 2.603,9 1.5,9 C0.947,9 0.5,9.448 0.5,10 C0.5,10.552 0.947,11 1.5,11 C2.603,11 3.5,11.897 3.5,13 L3.5,17 C3.5,18.654 4.846,20 6.5,20 C7.053,20 7.5,19.552 7.5,19 C7.5,18.448 7.053,18 6.5,18 C5.948,18 5.5,17.551 5.5,17 L5.5,13 C5.5,11.8 4.958,10.734 4.118,10 C4.958,9.266 5.5,8.2 5.5,7 Z" id="Path"></path>
                <circle id="Oval" cx="13.5" cy="6.5" r="1.5"></circle>
                <path d="M25.5,9 C24.397,9 23.5,8.103 23.5,7 L23.5,3 C23.5,1.346 22.154,0 20.5,0 C19.947,0 19.5,0.448 19.5,1 C19.5,1.552 19.947,2 20.5,2 C21.052,2 21.5,2.449 21.5,3 L21.5,7 C21.5,8.2 22.042,9.266 22.882,10 C22.042,10.734 21.5,11.8 21.5,13 L21.5,17 C21.5,17.551 21.052,18 20.5,18 C19.947,18 19.5,18.448 19.5,19 C19.5,19.552 19.947,20 20.5,20 C22.154,20 23.5,18.654 23.5,17 L23.5,13 C23.5,11.897 24.397,11 25.5,11 C26.053,11 26.5,10.552 26.5,10 C26.5,9.448 26.053,9 25.5,9 Z" id="Path"></path>
                <path d="M13.5,12 C12.947,12 12.5,12.448 12.5,13 L12.5,16 C12.5,16.552 12.947,17 13.5,17 C14.053,17 14.5,16.552 14.5,16 L14.5,13 C14.5,12.448 14.053,12 13.5,12 Z" id="Path"></path>
            </g>
        </g>
        <g id="html-svgrepo-com" transform="translate(33.000000, 39.000000)" fill-rule="nonzero">
            <path d="M30.985,0 L1.963,0 C1.155,0 0.5,0.655 0.5,1.926 L0.5,55 C0.5,55.345 1.155,56 1.963,56 L42.037,56 C42.845,56 43.5,55.345 43.5,55 L43.5,12.978 C43.5,12.282 43.407,12.058 43.243,11.893 L31.607,0.257 C31.442,0.093 31.218,0 30.985,0 Z" id="Path" fill="#E9E9E0"></path>
            <polygon id="Path" fill="#D9D7CA" points="31.5 0.151 31.5 12 43.349 12"></polygon>
            <path d="M42.037,56 L1.963,56 C1.155,56 0.5,55.345 0.5,54.537 L0.5,39 L43.5,39 L43.5,54.537 C43.5,55.345 42.845,56 42.037,56 Z" id="Path" fill="#EC6630"></path>
            <g id="Group" transform="translate(3.000000, 42.000000)" fill="#FFFFFF">
                <polygon id="Path" points="8.455 0.924 8.455 11 6.814 11 6.814 6.461 2.453 6.461 2.453 11 0.785 11 0.785 0.924 2.453 0.924 2.453 5.34 6.814 5.34 6.814 0.924 8.455 0.924"></polygon>
                <polygon id="Path" points="18.107 0.924 18.107 2.045 15.1 2.045 15.1 11 13.446 11 13.446 2.045 10.438 2.045 10.438 0.924"></polygon>
                <polygon id="Path" points="27.705 0.924 29.373 0.924 29.373 11 27.705 11 27.705 4.068 25.449 9.673 24 9.673 21.73 4.068 21.73 11 20.062 11 20.062 0.924 21.73 0.924 24.724 7.815"></polygon>
                <polygon id="Path" points="33.57 0.924 33.57 9.756 38.205 9.756 38.205 11 31.902 11 31.902 0.924"></polygon>
            </g>
            <g id="Group" transform="translate(9.000000, 16.000000)" fill="#EC6630">
                <path d="M8.207,0.293 C7.816,-0.098 7.184,-0.098 6.793,0.293 L0.793,6.293 C0.402,6.684 0.402,7.316 0.793,7.707 L6.793,13.707 C6.988,13.902 7.244,14 7.5,14 C7.756,14 8.012,13.902 8.207,13.707 C8.598,13.316 8.598,12.684 8.207,12.293 L2.914,7 L8.207,1.707 C8.598,1.316 8.598,0.684 8.207,0.293 Z" id="Path"></path>
                <path d="M26.207,6.293 L20.207,0.293 C19.816,-0.098 19.184,-0.098 18.793,0.293 C18.402,0.684 18.402,1.316 18.793,1.707 L24.086,7 L18.793,12.293 C18.402,12.684 18.402,13.316 18.793,13.707 C18.988,13.902 19.244,14 19.5,14 C19.756,14 20.012,13.902 20.207,13.707 L26.207,7.707 C26.598,7.316 26.598,6.684 26.207,6.293 Z" id="Path"></path>
            </g>
        </g>
        <g id="Group-2" transform="translate(177.000000, 93.000000)">
            <text id="ProtectStatic" font-family="Montserrat-SemiBold, Montserrat" font-size="21" font-weight="500" fill="#5F93EC">
                <tspan x="0" y="139">ProtectStatic</tspan>
            </text>
            <g id="vault-svgrepo-com" transform="translate(27.000000, 0.000000)" fill-rule="nonzero">
                <path d="M88,44 C88,68.3013351 68.2989283,88 44,88 C19.698493,88 0,68.3013351 0,44 C0,19.7010717 19.698493,0 44,0 C68.2991002,0 88,19.7010717 88,44 Z" id="Path" fill="#434A54"></path>
                <path d="M81,43.498631 C81,63.6580242 64.6581953,80 44.501369,80 C24.3419758,80 8,63.6580242 8,43.498631 C8,23.3418047 24.3419758,7 44.501369,7 C64.6581953,7 81,23.3418047 81,43.498631 Z" id="Path" fill="#656D78"></path>
                <path d="M67.0859885,54.7470579 L67.0859885,54.7470579 L67.0859885,54.7470579 L47.6574178,43.500086 L67.0832449,32.2556927 L67.0859885,32.2556927 C67.9593156,31.7482019 68.2592271,30.6281808 67.7556022,29.750043 C67.2492336,28.8746558 66.1322391,28.5738059 65.2565113,29.078718 L65.2565113,29.078718 L65.2565113,29.078718 L45.8277692,40.3258618 L45.8277692,17.8343247 L45.8277692,17.8343247 C45.8277692,16.82175 45.008114,16 44.0008641,16 C42.9910421,16 42.171387,16.82175 42.171387,17.8343247 L42.171387,17.8343247 L42.171387,17.8343247 L42.171387,40.3256899 L22.7426448,29.078546 L22.7426448,29.078546 C21.8693177,28.573634 20.749751,28.8744839 20.2461261,29.7498711 C19.7397576,30.6280089 20.0398405,31.74803 20.9157398,32.2555208 L20.9157398,32.2555208 L20.9157398,32.2555208 L40.3417383,43.500086 L20.9159113,54.7470579 L20.9159113,54.7470579 C20.040012,55.25197 19.739929,56.3745698 20.2462976,57.2501289 C20.7499225,58.1280948 21.8694891,58.4289447 22.7428163,57.921454 L22.7428163,57.921454 L22.7428163,57.921454 L42.1715585,46.6770607 L42.1715585,69.1685978 L42.1715585,69.1685978 L42.1715585,69.1685978 C42.1715585,70.1810007 42.9886415,71 44.0010356,71 C45.0082855,71 45.8279406,70.1808288 45.8279406,69.1685978 L45.8279406,69.1685978 L45.8279406,69.1685978 L45.8279406,46.6770607 L65.2566828,57.921454 L65.2566828,57.921454 C66.1324106,58.4289447 67.2494051,58.1280948 67.7557736,57.2501289 C68.2592271,56.3745698 67.9593156,55.2517981 67.0859885,54.7470579 Z" id="Path" fill="#F6BB42"></path>
                <g id="Group" transform="translate(2.000000, 2.000000)" fill="#AAB2BC">
                    <path d="M42.0309326,0.114331055 C41.0245117,0.114331055 40.2076172,0.931225586 40.2076172,1.93781738 C40.2076172,2.94423828 41.0245117,3.75839844 42.0309326,3.75839844 C43.0375244,3.75839844 43.8516846,2.94406738 43.8516846,1.93781738 C43.8516846,0.931225586 43.0375244,0.114331055 42.0309326,0.114331055 Z" id="Path"></path>
                    <path d="M42.0309326,80.3032959 C41.0245117,80.3032959 40.2076172,81.1201904 40.2076172,82.1267822 C40.2076172,83.1332031 41.0245117,83.9500977 42.0309326,83.9500977 C43.0375244,83.9500977 43.8516846,83.1332031 43.8516846,82.1267822 C43.8516846,81.1203613 43.0375244,80.3032959 42.0309326,80.3032959 Z" id="Path"></path>
                    <path d="M22.8945801,8.88688965 C23.7649658,8.38239746 24.0640381,7.26899414 23.5619385,6.39604492 C23.0574463,5.52583008 21.9442139,5.22675781 21.0712646,5.73125 C20.1983154,6.23334961 19.8992432,7.34914551 20.4039063,8.21953125 C20.9083984,9.09248047 22.0218018,9.38864746 22.8945801,8.88688965 Z" id="Path"></path>
                    <path d="M61.1672852,75.1775391 C60.2945068,75.6794678 59.9954346,76.7954346 60.4999268,77.6658203 C61.0018555,78.5385986 62.1178223,78.8351074 62.988208,78.3331787 C63.8609863,77.8310791 64.1600586,76.7152832 63.6553955,75.8448975 C63.1536377,74.9719482 62.0375,74.6730469 61.1672852,75.1775391 Z" id="Path"></path>
                    <path d="M6.39604492,23.5621094 C7.26643066,24.0666016 8.38222656,23.7677002 8.88432617,22.894751 C9.38881836,22.0243652 9.08974609,20.9085693 8.21696777,20.4064697 C7.34658203,19.9019775 6.23061523,20.2010498 5.72868652,21.0738281 C5.22692871,21.9442139 5.52583008,23.0601807 6.39604492,23.5621094 Z" id="Path"></path>
                    <path d="M77.6659912,60.499585 C76.7928711,59.9976563 75.6796387,60.2965576 75.1751465,61.1669434 C74.6732178,62.0398926 74.9695557,63.1532959 75.8425049,63.6577881 C76.7128906,64.1597168 77.8288574,63.8608154 78.3331787,62.9904297 C78.8351074,62.1174805 78.5360352,61.004248 77.6659912,60.499585 Z" id="Path"></path>
                    <path d="M1.93508301,40.2101807 C0.928662109,40.2101807 0.111767578,41.0245117 0.111767578,42.0309326 C0.111767578,43.0373535 0.928662109,43.854248 1.93508301,43.854248 C2.9416748,43.854248 3.75856934,43.0373535 3.75856934,42.0309326 C3.75856934,41.0243408 2.94150391,40.2101807 1.93508301,40.2101807 Z" id="Path"></path>
                    <path d="M82.1243896,40.2101807 C81.1177979,40.2101807 80.3036377,41.0245117 80.3036377,42.0309326 C80.3036377,43.0373535 81.1179687,43.854248 82.1243896,43.854248 C83.1308105,43.854248 83.9477051,43.0373535 83.9477051,42.0309326 C83.9475342,41.0243408 83.1306396,40.2101807 82.1243896,40.2101807 Z" id="Path"></path>
                    <path d="M6.39604492,60.499585 C5.52565918,61.0040771 5.22675781,62.1174805 5.72868652,62.9904297 C6.23061523,63.8633789 7.34658203,64.1597168 8.21696777,63.6577881 C9.08974609,63.1532959 9.38881836,62.0398926 8.88432617,61.1669434 C8.38222656,60.2967285 7.26643066,59.9978271 6.39604492,60.499585 Z" id="Path"></path>
                    <path d="M75.8425049,20.4064697 C74.9721191,20.9085693 74.6732178,22.0243652 75.1751465,22.894751 C75.6796387,23.7677002 76.7928711,24.0666016 77.6659912,23.5621094 C78.5362061,23.0601807 78.8352783,21.9442139 78.3331787,21.0738281 C77.8288574,20.2010498 76.7154541,19.9019775 75.8425049,20.4064697 Z" id="Path"></path>
                    <path d="M22.8945801,75.1775391 C22.0218018,74.6730469 20.9083984,74.9719482 20.4039062,75.8448975 C19.9018066,76.7152832 20.1983154,77.8310791 21.0712646,78.3331787 C21.9442139,78.8376709 23.0574463,78.5385986 23.5619385,77.6658203 C24.0640381,76.7954346 23.7649658,75.6794678 22.8945801,75.1775391 Z" id="Path"></path>
                    <path d="M62.9880371,5.72851563 C62.1176514,5.22658691 61.0016846,5.52565918 60.4997559,6.39587402 C59.9952637,7.26882324 60.2943359,8.38222656 61.1671143,8.88671875 C62.0375,9.39121094 63.1534668,9.09230957 63.6552246,8.21936035 C64.1598877,7.34914551 63.8608154,6.23317871 62.9880371,5.72851563 Z" id="Path"></path>
                </g>
                <path d="M59,43.4988103 C59,51.5088553 52.5088934,58 44.5012747,58 C36.4939959,58 30,51.5088553 30,43.4988103 C30,35.4914846 36.4939959,29 44.5012747,29 C52.5087234,29 59,35.4914846 59,43.4988103 Z" id="Path" fill="#FFCE54"></path>
                <path d="M46,43.9985931 C46,45.1033157 45.1061295,46 44.0014069,46 C42.8966843,46 42,45.1033157 42,43.9985931 C42,42.8936829 42.8966843,42 44.0014069,42 C45.1063171,42 46,42.8936829 46,43.9985931 Z" id="Path" fill="#434A54"></path>
            </g>
        </g>
        <g id="file-svgrepo-com" transform="translate(423.000000, 47.000000)" fill="#000000" fill-rule="nonzero">
            <path d="M36.1724333,10.2471483 L26.5166667,10.2471483 L26.5166667,0.780247148 L36.1724333,10.2471483 Z M13.5666667,33.460076 L23.2277778,33.460076 L23.2277778,30.1140684 L13.5666667,30.1140684 L13.5666667,33.460076 Z M37,13.3840304 L37,53.4315589 C37,53.848346 36.8711167,54.2479848 36.5808722,54.5424335 C36.2918611,54.8354183 35.9346056,55 35.5267833,55 C35.5251389,55 35.5234944,55 35.52185,55 L1.57085556,54.8881179 C0.721294444,54.8851901 0,54.1839924 0,53.3196768 L0,1.56844106 C0,0.702034221 0.7585,0 1.61011667,0 L23.4333333,0 L23.4333333,11.8155894 C23.4333333,12.6819962 24.1918333,13.3840304 25.04345,13.3840304 L37,13.3840304 Z M6.57777778,17.9847909 C6.57777778,17.118384 5.88772778,16.4163498 5.03611111,16.4163498 C4.18449444,16.4163498 3.49444444,17.118384 3.49444444,17.9847909 L3.49444444,45.5893536 C3.49444444,46.4557605 4.18449444,47.1577947 5.03611111,47.1577947 C5.88772778,47.1577947 6.57777778,46.4557605 6.57777778,45.5893536 L6.57777778,17.9847909 Z M26.3111111,41.9296578 C26.3111111,41.063251 25.7922889,40.3612167 24.9406722,40.3612167 L12.1962278,40.3612167 C11.3446111,40.3612167 10.4833333,41.063251 10.4833333,41.9296578 L10.4833333,45.3802281 C10.4833333,46.246635 11.1733833,46.9486692 12.025,46.9486692 C12.8766167,46.9486692 13.5666667,46.246635 13.5666667,45.3802281 L13.5666667,43.4980989 L23.2277778,43.4980989 L23.2277778,45.3802281 C23.2277778,46.246635 23.9178278,46.9486692 24.7694444,46.9486692 C25.6210611,46.9486692 26.3111111,46.246635 26.3111111,45.3802281 L26.3111111,41.9296578 Z M26.3111111,28.5456274 C26.3111111,27.6794297 25.6208556,26.9771863 24.7694444,26.9771863 L12.025,26.9771863 C11.1735889,26.9771863 10.4833333,27.6794297 10.4833333,28.5456274 L10.4833333,35.0285171 C10.4833333,35.8947148 11.1735889,36.5969582 12.025,36.5969582 L24.7694444,36.5969582 C25.6208556,36.5969582 26.3111111,35.8947148 26.3111111,35.0285171 L26.3111111,28.5456274 Z M26.3111111,17.7756654 C26.3111111,16.9092586 25.6210611,16.2072243 24.7694444,16.2072243 C23.9178278,16.2072243 23.2277778,16.9092586 23.2277778,17.7756654 L23.2277778,19.6577947 L13.5666667,19.6577947 L13.5666667,17.7756654 C13.5666667,16.9092586 12.8766167,16.2072243 12.025,16.2072243 C11.1733833,16.2072243 10.4833333,16.9092586 10.4833333,17.7756654 L10.4833333,21.2262357 C10.4833333,22.0926426 11.3446111,22.7946768 12.1962278,22.7946768 L24.9406722,22.7946768 C25.7922889,22.7946768 26.3111111,22.0926426 26.3111111,21.2262357 L26.3111111,17.7756654 Z M33.5055556,17.9847909 C33.5055556,17.118384 32.8155056,16.4163498 31.9638889,16.4163498 C31.1122722,16.4163498 30.4222222,17.118384 30.4222222,17.9847909 L30.4222222,45.5893536 C30.4222222,46.4557605 31.1122722,47.1577947 31.9638889,47.1577947 C32.8155056,47.1577947 33.5055556,46.4557605 33.5055556,45.5893536 L33.5055556,17.9847909 Z" id="Shape"></path>
        </g>
        <g id="file-svgrepo-com-copy" transform="translate(422.000000, 196.000000)" fill="#000000" fill-rule="nonzero">
            <path d="M36.1724333,10.2471483 L26.5166667,10.2471483 L26.5166667,0.780247148 L36.1724333,10.2471483 Z M13.5666667,33.460076 L23.2277778,33.460076 L23.2277778,30.1140684 L13.5666667,30.1140684 L13.5666667,33.460076 Z M37,13.3840304 L37,53.4315589 C37,53.848346 36.8711167,54.2479848 36.5808722,54.5424335 C36.2918611,54.8354183 35.9346056,55 35.5267833,55 C35.5251389,55 35.5234944,55 35.52185,55 L1.57085556,54.8881179 C0.721294444,54.8851901 0,54.1839924 0,53.3196768 L0,1.56844106 C0,0.702034221 0.7585,0 1.61011667,0 L23.4333333,0 L23.4333333,11.8155894 C23.4333333,12.6819962 24.1918333,13.3840304 25.04345,13.3840304 L37,13.3840304 Z M6.57777778,17.9847909 C6.57777778,17.118384 5.88772778,16.4163498 5.03611111,16.4163498 C4.18449444,16.4163498 3.49444444,17.118384 3.49444444,17.9847909 L3.49444444,45.5893536 C3.49444444,46.4557605 4.18449444,47.1577947 5.03611111,47.1577947 C5.88772778,47.1577947 6.57777778,46.4557605 6.57777778,45.5893536 L6.57777778,17.9847909 Z M26.3111111,41.9296578 C26.3111111,41.063251 25.7922889,40.3612167 24.9406722,40.3612167 L12.1962278,40.3612167 C11.3446111,40.3612167 10.4833333,41.063251 10.4833333,41.9296578 L10.4833333,45.3802281 C10.4833333,46.246635 11.1733833,46.9486692 12.025,46.9486692 C12.8766167,46.9486692 13.5666667,46.246635 13.5666667,45.3802281 L13.5666667,43.4980989 L23.2277778,43.4980989 L23.2277778,45.3802281 C23.2277778,46.246635 23.9178278,46.9486692 24.7694444,46.9486692 C25.6210611,46.9486692 26.3111111,46.246635 26.3111111,45.3802281 L26.3111111,41.9296578 Z M26.3111111,28.5456274 C26.3111111,27.6794297 25.6208556,26.9771863 24.7694444,26.9771863 L12.025,26.9771863 C11.1735889,26.9771863 10.4833333,27.6794297 10.4833333,28.5456274 L10.4833333,35.0285171 C10.4833333,35.8947148 11.1735889,36.5969582 12.025,36.5969582 L24.7694444,36.5969582 C25.6208556,36.5969582 26.3111111,35.8947148 26.3111111,35.0285171 L26.3111111,28.5456274 Z M26.3111111,17.7756654 C26.3111111,16.9092586 25.6210611,16.2072243 24.7694444,16.2072243 C23.9178278,16.2072243 23.2277778,16.9092586 23.2277778,17.7756654 L23.2277778,19.6577947 L13.5666667,19.6577947 L13.5666667,17.7756654 C13.5666667,16.9092586 12.8766167,16.2072243 12.025,16.2072243 C11.1733833,16.2072243 10.4833333,16.9092586 10.4833333,17.7756654 L10.4833333,21.2262357 C10.4833333,22.0926426 11.3446111,22.7946768 12.1962278,22.7946768 L24.9406722,22.7946768 C25.7922889,22.7946768 26.3111111,22.0926426 26.3111111,21.2262357 L26.3111111,17.7756654 Z M33.5055556,17.9847909 C33.5055556,17.118384 32.8155056,16.4163498 31.9638889,16.4163498 C31.1122722,16.4163498 30.4222222,17.118384 30.4222222,17.9847909 L30.4222222,45.5893536 C30.4222222,46.4557605 31.1122722,47.1577947 31.9638889,47.1577947 C32.8155056,47.1577947 33.5055556,46.4557605 33.5055556,45.5893536 L33.5055556,17.9847909 Z" id="Shape"></path>
        </g>
        <g id="file-svgrepo-com-copy-2" transform="translate(423.000000, 117.000000)" fill="#000000" fill-rule="nonzero">
            <path d="M36.1724333,10.2471483 L26.5166667,10.2471483 L26.5166667,0.780247148 L36.1724333,10.2471483 Z M13.5666667,33.460076 L23.2277778,33.460076 L23.2277778,30.1140684 L13.5666667,30.1140684 L13.5666667,33.460076 Z M37,13.3840304 L37,53.4315589 C37,53.848346 36.8711167,54.2479848 36.5808722,54.5424335 C36.2918611,54.8354183 35.9346056,55 35.5267833,55 C35.5251389,55 35.5234944,55 35.52185,55 L1.57085556,54.8881179 C0.721294444,54.8851901 0,54.1839924 0,53.3196768 L0,1.56844106 C0,0.702034221 0.7585,0 1.61011667,0 L23.4333333,0 L23.4333333,11.8155894 C23.4333333,12.6819962 24.1918333,13.3840304 25.04345,13.3840304 L37,13.3840304 Z M6.57777778,17.9847909 C6.57777778,17.118384 5.88772778,16.4163498 5.03611111,16.4163498 C4.18449444,16.4163498 3.49444444,17.118384 3.49444444,17.9847909 L3.49444444,45.5893536 C3.49444444,46.4557605 4.18449444,47.1577947 5.03611111,47.1577947 C5.88772778,47.1577947 6.57777778,46.4557605 6.57777778,45.5893536 L6.57777778,17.9847909 Z M26.3111111,41.9296578 C26.3111111,41.063251 25.7922889,40.3612167 24.9406722,40.3612167 L12.1962278,40.3612167 C11.3446111,40.3612167 10.4833333,41.063251 10.4833333,41.9296578 L10.4833333,45.3802281 C10.4833333,46.246635 11.1733833,46.9486692 12.025,46.9486692 C12.8766167,46.9486692 13.5666667,46.246635 13.5666667,45.3802281 L13.5666667,43.4980989 L23.2277778,43.4980989 L23.2277778,45.3802281 C23.2277778,46.246635 23.9178278,46.9486692 24.7694444,46.9486692 C25.6210611,46.9486692 26.3111111,46.246635 26.3111111,45.3802281 L26.3111111,41.9296578 Z M26.3111111,28.5456274 C26.3111111,27.6794297 25.6208556,26.9771863 24.7694444,26.9771863 L12.025,26.9771863 C11.1735889,26.9771863 10.4833333,27.6794297 10.4833333,28.5456274 L10.4833333,35.0285171 C10.4833333,35.8947148 11.1735889,36.5969582 12.025,36.5969582 L24.7694444,36.5969582 C25.6208556,36.5969582 26.3111111,35.8947148 26.3111111,35.0285171 L26.3111111,28.5456274 Z M26.3111111,17.7756654 C26.3111111,16.9092586 25.6210611,16.2072243 24.7694444,16.2072243 C23.9178278,16.2072243 23.2277778,16.9092586 23.2277778,17.7756654 L23.2277778,19.6577947 L13.5666667,19.6577947 L13.5666667,17.7756654 C13.5666667,16.9092586 12.8766167,16.2072243 12.025,16.2072243 C11.1733833,16.2072243 10.4833333,16.9092586 10.4833333,17.7756654 L10.4833333,21.2262357 C10.4833333,22.0926426 11.3446111,22.7946768 12.1962278,22.7946768 L24.9406722,22.7946768 C25.7922889,22.7946768 26.3111111,22.0926426 26.3111111,21.2262357 L26.3111111,17.7756654 Z M33.5055556,17.9847909 C33.5055556,17.118384 32.8155056,16.4163498 31.9638889,16.4163498 C31.1122722,16.4163498 30.4222222,17.118384 30.4222222,17.9847909 L30.4222222,45.5893536 C30.4222222,46.4557605 31.1122722,47.1577947 31.9638889,47.1577947 C32.8155056,47.1577947 33.5055556,46.4557605 33.5055556,45.5893536 L33.5055556,17.9847909 Z" id="Shape"></path>
        </g>
        <g id="web-development-svgrepo-com" transform="translate(604.000000, 102.000000)" fill="#000000" fill-rule="nonzero">
            <path d="M43.0489796,62.5 C33.1237082,62.5 25.0489796,54.4252892 25.0489796,44.5000875 C25.0489796,34.5748857 33.1237082,26.5 43.0489796,26.5 C52.9740753,26.5 61.0489796,34.5748857 61.0489796,44.5000875 C61.0489796,54.4252892 52.974251,62.5 43.0489796,62.5 Z M43.0489796,29.9984233 C35.0617696,29.9984233 28.5637808,36.5037414 28.5637808,44.5000875 C28.5637808,52.4962586 35.0617696,59.0015767 43.0489796,59.0015767 C51.0361896,59.0015767 57.5341784,52.4962586 57.5341784,44.5000875 C57.5341784,36.5037414 51.0361896,29.9984233 43.0489796,29.9984233 Z" id="Shape"></path>
            <path d="M45.2593247,86.5 L45.2591483,86.5 L40.8389873,86.5 C36.5034902,86.5 32.9760042,82.9761061 32.9758278,78.6445143 L32.9758278,71.7194082 C32.0417028,71.3845347 31.1204537,71.0013959 30.2198415,70.5729755 L25.3283848,75.4653224 C23.8432389,76.9511918 21.867748,77.7694204 19.7659667,77.7694204 C17.6643618,77.7695959 15.6885181,76.9515429 14.2030195,75.465849 L11.0773342,72.3393102 C8.01726345,69.2791143 8.01708706,64.2984857 11.0769814,61.2367102 L15.9772573,56.3357633 C15.5465297,55.4311837 15.1611326,54.5051918 14.82477,53.5658612 L7.91125719,53.5655102 C5.80894678,53.5655102 3.83380859,52.7474571 2.34866272,51.2619388 C0.865809823,49.7792286 0.0489795918,47.8075469 0.0489795918,45.710902 L0.0489795918,41.289449 C0.0489795918,36.9587347 3.57593647,33.4348408 7.91108081,33.4339633 L14.8251227,33.4339633 C15.1616617,32.4942816 15.5468825,31.5684653 15.9772573,30.6642367 L11.0775106,25.7634653 C9.59465769,24.2805796 8.77765108,22.308898 8.77765108,20.2122531 C8.77765108,18.1159592 9.59430493,16.1442776 11.0771578,14.6610408 L14.2030195,11.5346776 C15.6865779,10.0507388 17.6622452,9.23356327 19.7661431,9.23356327 C21.8696882,9.23356327 23.8451792,10.0505633 25.328914,11.5343265 L30.220547,16.426849 C31.1208065,15.9987796 32.0420555,15.6154653 32.9763569,15.2807673 L32.9763569,8.3553102 C32.9760042,4.02389388 36.5031374,0.5 40.8386345,0.5 L45.2587955,0.5 C49.594469,0.5 53.1217786,4.02389388 53.1217786,8.3553102 L53.1217786,15.2807673 C54.05608,15.6156408 54.9773291,15.9989551 55.8775885,16.4272 L60.7692216,11.5346776 C62.2533092,10.0488082 64.2289765,9.23022857 66.3314633,9.23022857 C68.4335973,9.23022857 70.4094411,10.0486327 71.8949397,11.5348531 L75.0200958,14.6599878 C78.0801666,17.7205347 78.080343,22.7013388 75.0208014,25.7631143 L70.1199964,30.6649388 C70.548431,31.5661837 70.9325934,32.4914735 71.2696615,33.4341388 L78.186702,33.4346653 C80.2898943,33.4346653 82.2645034,34.2527184 83.7491201,35.7382367 C85.231973,37.2211224 86.0489796,39.1928041 86.0489796,41.289449 L86.0489796,45.7102 C86.0489796,50.0409143 82.5220227,53.5649837 78.186702,53.5660367 L71.2698379,53.5660367 C70.9327698,54.5085265 70.5486073,55.4339918 70.1201727,56.3354122 L75.020625,61.2370612 C76.5034779,62.7197714 77.3203081,64.6912776 77.3203081,66.7877469 C77.3203081,68.8840408 76.5038306,70.8555469 75.0211541,72.3389592 L71.8951161,75.465498 C70.4119104,76.9492612 68.4362431,77.7664367 66.3318161,77.7664367 C64.2280946,77.7664367 62.2526036,76.9494367 60.7688688,75.465849 L55.8772358,70.573151 C54.9767999,71.0015714 54.0557273,71.3847102 53.1217786,71.7192327 L53.1212495,78.6452163 C53.121955,80.7406327 52.3054776,82.7121388 50.8220955,84.195902 C49.3365969,85.6815959 47.3612823,86.5 45.2593247,86.5 Z M29.874307,66.6963061 C30.1556381,66.6963061 30.4389093,66.7635265 30.6994272,66.9016531 C32.1589975,67.6758286 33.6905322,68.3131061 35.2518756,68.7957592 C35.9859821,69.0226939 36.4862046,69.6985837 36.4862046,70.4634571 L36.4862046,78.6445143 C36.486381,81.0500571 38.4389422,83.0069959 40.8391637,83.0069959 L45.2591483,83.0069959 C46.420102,83.0069959 47.5119135,82.5543551 48.3336825,81.7322653 C49.1577444,80.9078939 49.6115782,79.8116571 49.6112254,78.6453918 L49.6117545,70.4629306 C49.6119309,69.6980571 50.1119771,69.0221673 50.84626,68.7952327 C52.4070742,68.3127551 53.9384325,67.6756531 55.3974737,66.9016531 C56.0806055,66.5395755 56.9214238,66.6648898 57.467506,67.2110776 L63.2574583,73.0020367 C64.0771106,73.8218449 65.1690985,74.2734327 66.3318161,74.2734327 C67.4948864,74.2734327 68.5868743,73.8218449 69.4065266,73.0020367 L72.5323883,69.875498 C73.3562739,69.0511265 73.8101076,67.9543633 73.8101076,66.7873959 C73.8101076,65.6206041 73.3562739,64.5241918 72.5322119,63.7001714 L66.742436,57.9090367 C66.2009398,57.3674122 66.0760606,56.538302 66.4342947,55.8625878 C67.2020904,54.4144531 67.8384807,52.8813714 68.32618,51.3052898 C68.5528323,50.5727102 69.2333184,50.0730327 70.0035835,50.0730327 L78.1865256,50.0730327 C80.5863943,50.0725061 82.5391319,48.1152163 82.5391319,45.7100245 L82.5391319,41.2896245 C82.5391319,40.1224816 82.0849453,39.0257184 81.260707,38.2013469 C80.4396436,37.3797837 79.3490668,36.9274939 78.1895241,36.9274939 L70.0034071,36.9267918 C69.233142,36.9266163 68.5530087,36.4267633 68.32618,35.6945347 C67.8384807,34.1186286 67.201914,32.5853714 66.4342947,31.1375878 C66.0758842,30.461698 66.2007634,29.6325878 66.742436,29.0909633 L72.5322119,23.3000041 C74.2341326,21.5970286 74.2341326,18.8260735 72.5320355,17.1236245 L69.406703,13.9984898 C68.5845813,13.1758735 67.4925934,12.7232327 66.3318161,12.7232327 C65.1708624,12.7232327 64.0794036,13.1758735 63.258693,13.9976122 L57.4678587,19.7892735 C56.9217766,20.3352857 56.0806055,20.4607755 55.3976501,20.0985224 C53.9394908,19.3248735 52.4079562,18.6875959 50.8459072,18.2044163 C50.1118007,17.9774816 49.6115782,17.3015918 49.6115782,16.5367184 L49.6115782,8.3553102 C49.6115782,5.94994286 47.659017,3.99300408 45.2587955,3.99300408 L40.8386345,3.99300408 C38.4387658,3.99300408 36.4862046,5.94994286 36.4862046,8.3553102 L36.4862046,16.5365429 C36.4862046,17.3014163 35.9859821,17.9773061 35.2518756,18.2044163 C33.6898266,18.6872449 32.158292,19.3245224 30.69978,20.0981714 C30.0166482,20.460249 29.1758298,20.3349347 28.6299241,19.7887469 L22.8401481,13.9977878 C22.0204958,13.1779796 20.9286843,12.7263918 19.7659667,12.7263918 C18.6032492,12.7263918 17.5112613,13.1779796 16.6912562,13.9981388 L13.5655709,17.1243265 C12.7415089,17.9485224 12.2876752,19.0451102 12.2876752,20.2122531 C12.2878516,21.3790449 12.7416853,22.4756327 13.5657473,23.2998286 L19.3553468,29.0906122 C19.8970194,29.6324122 20.0217222,30.4615224 19.6633117,31.1374122 C18.8900481,32.5952 18.2525995,34.1281061 17.7684279,35.6938327 C17.541952,36.4265878 16.8614659,36.9266163 16.0910244,36.9266163 L7.91125719,36.9266163 C5.51156484,36.9271429 3.55900369,38.8840816 3.55900369,41.289098 L3.55900369,45.710551 C3.55900369,46.8775184 4.01283746,47.9739306 4.8368994,48.7981265 C5.65866836,49.6198653 6.74995072,50.0725061 7.90984613,50.0725061 L16.0910244,50.0728571 C16.8614659,50.0728571 17.541952,50.5730612 17.7684279,51.3056408 C18.2520704,52.8697878 18.889519,54.4028694 19.6634881,55.8622367 C20.0218986,56.5381265 19.8970194,57.3672367 19.3553468,57.9090367 L13.5657473,63.6996449 C11.8638265,65.4024449 11.8636502,68.1732245 13.5659237,69.875498 L16.6914325,73.0020367 C17.5132015,73.823951 18.6051894,74.2764163 19.7659667,74.2764163 C20.926744,74.2764163 22.0183792,73.8237755 22.8397954,73.0018612 L28.6297477,67.210902 C28.967345,66.8732204 29.4180038,66.6963061 29.874307,66.6963061 Z" id="Shape"></path>
        </g>
        <text id="ServiceWorker" font-family="Montserrat-SemiBold, Montserrat" font-size="21" font-weight="500" fill="#44464B">
            <tspan x="567" y="232">ServiceWorker</tspan>
        </text>
        <g id="css-svgrepo-com-copy" transform="translate(818.000000, 117.000000)" fill-rule="nonzero">
            <path d="M31.485,0 L2.463,0 C1.655,0 1,0.655 1,1.926 L1,55 C1,55.345 1.655,56 2.463,56 L42.537,56 C43.345,56 44,55.345 44,55 L44,12.978 C44,12.282 43.907,12.058 43.743,11.893 L32.107,0.257 C31.942,0.093 31.718,0 31.485,0 Z" id="Path" fill="#E9E9E0"></path>
            <polygon id="Path" fill="#D9D7CA" points="31.5 0.151 31.5 12 43.349 12"></polygon>
            <path d="M42.037,56 L1.963,56 C1.155,56 0.5,55.345 0.5,54.537 L0.5,39 L43.5,39 L43.5,54.537 C43.5,55.345 42.845,56 42.037,56 Z" id="Path" fill="#0096E6"></path>
            <g id="Group" transform="translate(10.000000, 42.000000)" fill="#FFFFFF">
                <path d="M7.58,9.975 C7.206,10.339 6.782,10.613 6.309,10.795 C5.836,10.977 5.325,11.068 4.778,11.068 C4.176,11.068 3.623,10.959 3.117,10.74 C2.611,10.521 2.169,10.198 1.791,9.769 C1.413,9.34 1.116,8.803 0.902,8.156 C0.688,7.509 0.581,6.761 0.581,5.914 C0.581,5.067 0.688,4.321 0.902,3.679 C1.116,3.036 1.413,2.501 1.791,2.073 C2.169,1.645 2.613,1.319 3.124,1.095 C3.635,0.871 4.186,0.76 4.778,0.76 C5.325,0.76 5.836,0.851 6.309,1.033 C6.782,1.215 7.206,1.489 7.58,1.853 L6.445,2.865 C6.217,2.6 5.965,2.409 5.686,2.291 C5.407,2.173 5.119,2.113 4.818,2.113 C4.481,2.113 4.16,2.176 3.854,2.304 C3.548,2.432 3.275,2.648 3.034,2.953 C2.793,3.258 2.603,3.652 2.467,4.136 C2.331,4.62 2.257,5.211 2.248,5.913 C2.257,6.597 2.328,7.18 2.46,7.663 C2.592,8.146 2.774,8.54 3.007,8.846 C3.24,9.152 3.504,9.374 3.8,9.516 C4.096,9.658 4.408,9.728 4.737,9.728 C5.066,9.728 5.373,9.668 5.66,9.55 C5.947,9.432 6.209,9.24 6.446,8.976 L7.58,9.975 Z" id="Path"></path>
                <path d="M15.633,8.238 C15.633,8.602 15.558,8.956 15.407,9.298 C15.256,9.64 15.045,9.941 14.771,10.2 C14.497,10.459 14.161,10.667 13.759,10.822 C13.357,10.977 12.903,11.054 12.392,11.054 C12.173,11.054 11.948,11.042 11.715,11.02 C11.482,10.998 11.248,10.958 11.011,10.904 C10.774,10.85 10.548,10.774 10.334,10.678 C10.12,10.582 9.936,10.466 9.78,10.329 L10.067,9.153 C10.195,9.226 10.356,9.297 10.552,9.365 C10.748,9.433 10.95,9.497 11.16,9.556 C11.37,9.615 11.579,9.663 11.789,9.7 C11.999,9.737 12.194,9.755 12.377,9.755 C12.933,9.755 13.359,9.625 13.655,9.365 C13.951,9.105 14.099,8.72 14.099,8.21 C14.099,7.9 13.995,7.636 13.785,7.417 C13.575,7.198 13.313,7 12.999,6.822 C12.685,6.644 12.345,6.467 11.98,6.289 C11.615,6.111 11.274,5.901 10.955,5.66 C10.636,5.419 10.372,5.134 10.162,4.806 C9.952,4.478 9.848,4.068 9.848,3.576 C9.848,3.13 9.93,2.733 10.094,2.387 C10.258,2.041 10.479,1.746 10.757,1.505 C11.035,1.264 11.359,1.079 11.728,0.951 C12.097,0.823 12.487,0.76 12.897,0.76 C13.316,0.76 13.74,0.799 14.168,0.876 C14.596,0.953 14.942,1.079 15.207,1.252 C15.152,1.37 15.089,1.5 15.016,1.642 C14.943,1.784 14.874,1.915 14.811,2.038 C14.748,2.161 14.693,2.264 14.647,2.346 C14.601,2.428 14.574,2.474 14.565,2.483 C14.51,2.456 14.449,2.42 14.38,2.374 C14.311,2.328 14.214,2.283 14.086,2.237 C13.958,2.191 13.79,2.16 13.58,2.141 C13.37,2.122 13.101,2.127 12.773,2.155 C12.59,2.174 12.418,2.225 12.253,2.312 C12.088,2.399 11.943,2.505 11.815,2.633 C11.687,2.761 11.587,2.904 11.514,3.064 C11.441,3.224 11.405,3.377 11.405,3.522 C11.405,3.886 11.509,4.18 11.719,4.404 C11.929,4.628 12.189,4.823 12.498,4.992 C12.807,5.161 13.145,5.325 13.51,5.484 C13.875,5.643 14.214,5.838 14.529,6.065 C14.844,6.292 15.105,6.578 15.315,6.919 C15.525,7.26 15.633,7.7 15.633,8.238 Z" id="Path"></path>
                <path d="M23.043,8.238 C23.043,8.602 22.968,8.956 22.817,9.298 C22.666,9.64 22.455,9.941 22.181,10.2 C21.907,10.459 21.571,10.667 21.169,10.822 C20.767,10.977 20.313,11.054 19.802,11.054 C19.583,11.054 19.358,11.042 19.125,11.02 C18.892,10.998 18.658,10.958 18.421,10.904 C18.184,10.85 17.958,10.774 17.744,10.678 C17.53,10.582 17.346,10.466 17.19,10.329 L17.477,9.153 C17.605,9.226 17.766,9.297 17.962,9.365 C18.158,9.433 18.36,9.497 18.57,9.556 C18.78,9.615 18.989,9.663 19.199,9.7 C19.409,9.737 19.604,9.755 19.787,9.755 C20.343,9.755 20.769,9.625 21.065,9.365 C21.361,9.105 21.509,8.72 21.509,8.21 C21.509,7.9 21.405,7.636 21.195,7.417 C20.985,7.198 20.723,7 20.409,6.822 C20.095,6.644 19.755,6.467 19.39,6.289 C19.025,6.111 18.684,5.901 18.365,5.66 C18.046,5.419 17.782,5.134 17.572,4.806 C17.362,4.478 17.258,4.068 17.258,3.576 C17.258,3.13 17.34,2.733 17.504,2.387 C17.668,2.041 17.889,1.746 18.167,1.505 C18.445,1.264 18.769,1.079 19.138,0.951 C19.507,0.823 19.897,0.76 20.307,0.76 C20.726,0.76 21.15,0.799 21.578,0.876 C22.006,0.953 22.352,1.079 22.617,1.252 C22.562,1.37 22.499,1.5 22.426,1.642 C22.353,1.784 22.284,1.915 22.221,2.038 C22.158,2.161 22.103,2.264 22.057,2.346 C22.011,2.428 21.984,2.474 21.975,2.483 C21.92,2.456 21.859,2.42 21.79,2.374 C21.721,2.328 21.624,2.283 21.496,2.237 C21.368,2.191 21.2,2.16 20.99,2.141 C20.78,2.122 20.511,2.127 20.183,2.155 C20,2.174 19.828,2.225 19.663,2.312 C19.498,2.399 19.353,2.505 19.225,2.633 C19.097,2.761 18.997,2.904 18.924,3.064 C18.851,3.224 18.815,3.377 18.815,3.522 C18.815,3.886 18.919,4.18 19.129,4.404 C19.339,4.628 19.599,4.823 19.908,4.992 C20.217,5.161 20.555,5.325 20.92,5.484 C21.285,5.643 21.624,5.838 21.939,6.065 C22.254,6.292 22.515,6.578 22.725,6.919 C22.935,7.26 23.043,7.7 23.043,8.238 Z" id="Path"></path>
            </g>
            <g id="Group" transform="translate(8.000000, 12.000000)" fill="#0096E6">
                <path d="M5.5,7 L5.5,3 C5.5,2.449 5.948,2 6.5,2 C7.053,2 7.5,1.552 7.5,1 C7.5,0.448 7.053,0 6.5,0 C4.846,0 3.5,1.346 3.5,3 L3.5,7 C3.5,8.103 2.603,9 1.5,9 C0.947,9 0.5,9.448 0.5,10 C0.5,10.552 0.947,11 1.5,11 C2.603,11 3.5,11.897 3.5,13 L3.5,17 C3.5,18.654 4.846,20 6.5,20 C7.053,20 7.5,19.552 7.5,19 C7.5,18.448 7.053,18 6.5,18 C5.948,18 5.5,17.551 5.5,17 L5.5,13 C5.5,11.8 4.958,10.734 4.118,10 C4.958,9.266 5.5,8.2 5.5,7 Z" id="Path"></path>
                <path d="M25.5,9 C24.397,9 23.5,8.103 23.5,7 L23.5,3 C23.5,1.346 22.154,0 20.5,0 C19.947,0 19.5,0.448 19.5,1 C19.5,1.552 19.947,2 20.5,2 C21.052,2 21.5,2.449 21.5,3 L21.5,7 C21.5,8.2 22.042,9.266 22.882,10 C22.042,10.734 21.5,11.8 21.5,13 L21.5,17 C21.5,17.551 21.052,18 20.5,18 C19.947,18 19.5,18.448 19.5,19 C19.5,19.552 19.947,20 20.5,20 C22.154,20 23.5,18.654 23.5,17 L23.5,13 C23.5,11.897 24.397,11 25.5,11 C26.053,11 26.5,10.552 26.5,10 C26.5,9.448 26.053,9 25.5,9 Z" id="Path"></path>
            </g>
        </g>
        <g id="javascript-svgrepo-com-copy" transform="translate(818.000000, 196.000000)" fill-rule="nonzero">
            <path d="M30.985,0 L1.963,0 C1.155,0 0.5,0.655 0.5,1.926 L0.5,55 C0.5,55.345 1.155,56 1.963,56 L42.037,56 C42.845,56 43.5,55.345 43.5,55 L43.5,12.978 C43.5,12.282 43.407,12.058 43.243,11.893 L31.607,0.257 C31.442,0.093 31.218,0 30.985,0 Z" id="Path" fill="#E9E9E0"></path>
            <polygon id="Path" fill="#D9D7CA" points="31.5 0.151 31.5 12 43.349 12"></polygon>
            <path d="M42.037,56 L1.963,56 C1.155,56 0.5,55.345 0.5,54.537 L0.5,39 L43.5,39 L43.5,54.537 C43.5,55.345 42.845,56 42.037,56 Z" id="Path" fill="#EEAF4B"></path>
            <g id="Group" transform="translate(13.000000, 42.000000)" fill="#FFFFFF">
                <path d="M7.021,0.719 L7.021,8.567 C7.021,9.041 6.934,9.44 6.761,9.763 C6.587,10.086 6.355,10.346 6.064,10.542 C5.772,10.738 5.437,10.875 5.059,10.952 C4.681,11.029 4.29,11.068 3.89,11.068 C3.689,11.068 3.454,11.047 3.186,11.006 C2.918,10.965 2.639,10.902 2.352,10.815 C2.065,10.728 1.789,10.63 1.525,10.521 C1.26,10.412 1.037,10.289 0.855,10.152 L1.552,9.045 C1.643,9.108 1.773,9.175 1.942,9.243 C2.111,9.311 2.295,9.375 2.496,9.434 C2.696,9.494 2.906,9.545 3.125,9.591 C3.344,9.637 3.549,9.659 3.74,9.659 C4.222,9.659 4.608,9.565 4.895,9.379 C5.182,9.193 5.334,8.875 5.353,8.429 L5.353,0.718 L7.021,0.718 L7.021,0.719 Z" id="Path"></path>
                <path d="M15.184,8.238 C15.184,8.602 15.109,8.956 14.958,9.298 C14.807,9.64 14.596,9.941 14.322,10.2 C14.048,10.459 13.711,10.667 13.31,10.822 C12.909,10.977 12.453,11.054 11.943,11.054 C11.724,11.054 11.499,11.042 11.266,11.02 C11.033,10.998 10.798,10.958 10.562,10.904 C10.325,10.849 10.099,10.774 9.885,10.678 C9.671,10.582 9.486,10.466 9.331,10.329 L9.618,9.153 C9.745,9.226 9.907,9.297 10.103,9.365 C10.299,9.433 10.501,9.497 10.711,9.556 C10.92,9.616 11.13,9.663 11.34,9.7 C11.549,9.736 11.745,9.755 11.928,9.755 C12.484,9.755 12.91,9.625 13.206,9.365 C13.502,9.105 13.65,8.72 13.65,8.21 C13.65,7.9 13.545,7.636 13.336,7.417 C13.126,7.198 12.864,7 12.55,6.822 C12.236,6.644 11.896,6.467 11.531,6.289 C11.166,6.111 10.824,5.901 10.506,5.66 C10.187,5.419 9.922,5.134 9.713,4.806 C9.503,4.478 9.399,4.068 9.399,3.576 C9.399,3.13 9.481,2.733 9.645,2.387 C9.809,2.041 10.03,1.746 10.308,1.505 C10.586,1.264 10.91,1.079 11.279,0.951 C11.648,0.823 12.038,0.76 12.448,0.76 C12.867,0.76 13.291,0.799 13.719,0.876 C14.147,0.953 14.493,1.079 14.758,1.252 C14.703,1.37 14.639,1.5 14.567,1.642 C14.494,1.784 14.425,1.915 14.362,2.038 C14.298,2.161 14.243,2.264 14.198,2.346 C14.152,2.428 14.125,2.474 14.116,2.483 C14.061,2.456 14,2.42 13.931,2.374 C13.862,2.328 13.764,2.283 13.637,2.237 C13.509,2.191 13.34,2.16 13.131,2.141 C12.921,2.122 12.652,2.127 12.324,2.155 C12.141,2.174 11.969,2.225 11.804,2.312 C11.639,2.399 11.493,2.505 11.366,2.633 C11.238,2.761 11.137,2.904 11.065,3.064 C10.992,3.223 10.956,3.377 10.956,3.522 C10.956,3.886 11.06,4.18 11.27,4.404 C11.479,4.628 11.739,4.823 12.049,4.992 C12.359,5.161 12.695,5.325 13.061,5.484 C13.425,5.643 13.765,5.838 14.08,6.065 C14.395,6.292 14.656,6.578 14.866,6.919 C15.078,7.261 15.184,7.7 15.184,8.238 Z" id="Path"></path>
            </g>
            <g id="Group" transform="translate(8.000000, 12.000000)" fill="#EEAF4B">
                <path d="M5.5,7 L5.5,3 C5.5,2.449 5.948,2 6.5,2 C7.053,2 7.5,1.552 7.5,1 C7.5,0.448 7.053,0 6.5,0 C4.846,0 3.5,1.346 3.5,3 L3.5,7 C3.5,8.103 2.603,9 1.5,9 C0.947,9 0.5,9.448 0.5,10 C0.5,10.552 0.947,11 1.5,11 C2.603,11 3.5,11.897 3.5,13 L3.5,17 C3.5,18.654 4.846,20 6.5,20 C7.053,20 7.5,19.552 7.5,19 C7.5,18.448 7.053,18 6.5,18 C5.948,18 5.5,17.551 5.5,17 L5.5,13 C5.5,11.8 4.958,10.734 4.118,10 C4.958,9.266 5.5,8.2 5.5,7 Z" id="Path"></path>
                <circle id="Oval" cx="13.5" cy="6.5" r="1.5"></circle>
                <path d="M25.5,9 C24.397,9 23.5,8.103 23.5,7 L23.5,3 C23.5,1.346 22.154,0 20.5,0 C19.947,0 19.5,0.448 19.5,1 C19.5,1.552 19.947,2 20.5,2 C21.052,2 21.5,2.449 21.5,3 L21.5,7 C21.5,8.2 22.042,9.266 22.882,10 C22.042,10.734 21.5,11.8 21.5,13 L21.5,17 C21.5,17.551 21.052,18 20.5,18 C19.947,18 19.5,18.448 19.5,19 C19.5,19.552 19.947,20 20.5,20 C22.154,20 23.5,18.654 23.5,17 L23.5,13 C23.5,11.897 24.397,11 25.5,11 C26.053,11 26.5,10.552 26.5,10 C26.5,9.448 26.053,9 25.5,9 Z" id="Path"></path>
                <path d="M13.5,12 C12.947,12 12.5,12.448 12.5,13 L12.5,16 C12.5,16.552 12.947,17 13.5,17 C14.053,17 14.5,16.552 14.5,16 L14.5,13 C14.5,12.448 14.053,12 13.5,12 Z" id="Path"></path>
            </g>
        </g>
        <g id="html-svgrepo-com-copy" transform="translate(818.000000, 39.000000)" fill-rule="nonzero">
            <path d="M30.985,0 L1.963,0 C1.155,0 0.5,0.655 0.5,1.926 L0.5,55 C0.5,55.345 1.155,56 1.963,56 L42.037,56 C42.845,56 43.5,55.345 43.5,55 L43.5,12.978 C43.5,12.282 43.407,12.058 43.243,11.893 L31.607,0.257 C31.442,0.093 31.218,0 30.985,0 Z" id="Path" fill="#E9E9E0"></path>
            <polygon id="Path" fill="#D9D7CA" points="31.5 0.151 31.5 12 43.349 12"></polygon>
            <path d="M42.037,56 L1.963,56 C1.155,56 0.5,55.345 0.5,54.537 L0.5,39 L43.5,39 L43.5,54.537 C43.5,55.345 42.845,56 42.037,56 Z" id="Path" fill="#EC6630"></path>
            <g id="Group" transform="translate(3.000000, 42.000000)" fill="#FFFFFF">
                <polygon id="Path" points="8.455 0.924 8.455 11 6.814 11 6.814 6.461 2.453 6.461 2.453 11 0.785 11 0.785 0.924 2.453 0.924 2.453 5.34 6.814 5.34 6.814 0.924 8.455 0.924"></polygon>
                <polygon id="Path" points="18.107 0.924 18.107 2.045 15.1 2.045 15.1 11 13.446 11 13.446 2.045 10.438 2.045 10.438 0.924"></polygon>
                <polygon id="Path" points="27.705 0.924 29.373 0.924 29.373 11 27.705 11 27.705 4.068 25.449 9.673 24 9.673 21.73 4.068 21.73 11 20.062 11 20.062 0.924 21.73 0.924 24.724 7.815"></polygon>
                <polygon id="Path" points="33.57 0.924 33.57 9.756 38.205 9.756 38.205 11 31.902 11 31.902 0.924"></polygon>
            </g>
            <g id="Group" transform="translate(9.000000, 16.000000)" fill="#EC6630">
                <path d="M8.207,0.293 C7.816,-0.098 7.184,-0.098 6.793,0.293 L0.793,6.293 C0.402,6.684 0.402,7.316 0.793,7.707 L6.793,13.707 C6.988,13.902 7.244,14 7.5,14 C7.756,14 8.012,13.902 8.207,13.707 C8.598,13.316 8.598,12.684 8.207,12.293 L2.914,7 L8.207,1.707 C8.598,1.316 8.598,0.684 8.207,0.293 Z" id="Path"></path>
                <path d="M26.207,6.293 L20.207,0.293 C19.816,-0.098 19.184,-0.098 18.793,0.293 C18.402,0.684 18.402,1.316 18.793,1.707 L24.086,7 L18.793,12.293 C18.402,12.684 18.402,13.316 18.793,13.707 C18.988,13.902 19.244,14 19.5,14 C19.756,14 20.012,13.902 20.207,13.707 L26.207,7.707 C26.598,7.316 26.598,6.684 26.207,6.293 Z" id="Path"></path>
            </g>
        </g>
        <path id="Line-7" d="M486.866332,78.3155482 L485.846,82.182 L587.627463,109.01652 L588.110943,109.143983 L587.856017,110.110943 L587.372537,109.98348 L485.591,83.149 L484.571998,87.0181933 L477.01652,80.372537 L486.866332,78.3155482 Z" fill="#979797" fill-rule="nonzero"></path>
        <path id="Line-8" d="M587.97678,138.977812 L588.022188,139.97678 L587.522704,139.999484 L486.013,144.614 L486.195567,148.609393 L477.000516,144.522704 L485.786898,139.618676 L485.968,143.615 L587.477296,139.000516 L587.97678,138.977812 Z" fill="#979797" fill-rule="nonzero"></path>
        <path id="Line-9" d="M587.830048,171.874646 L588.125354,172.830048 L587.647653,172.977701 L485.768,204.467 L486.949801,208.289209 L477.022299,206.647653 L484.292044,199.690585 L485.473,203.511 L587.352347,172.022299 L587.830048,171.874646 Z" fill="#979797" fill-rule="nonzero"></path>
        <path d="M109.026756,220.26087 C118.016722,220.26087 124.839465,218.040134 129.494983,213.598662 C134.150502,209.157191 136.478261,202.655518 136.478261,194.093645 L136.478261,194.093645 L136.478261,161.023411 C136.478261,158.454849 137.093645,156.528428 138.324415,155.244147 C139.555184,153.959866 141.294314,153.317726 143.541806,153.317726 L143.541806,153.317726 L149,153.317726 L149,136.943144 L143.541806,136.943144 C141.294314,136.943144 139.555184,136.301003 138.324415,135.016722 C137.093645,133.732441 136.478261,131.80602 136.478261,129.237458 L136.478261,129.237458 L136.478261,96.1672241 C136.478261,87.6053512 134.150502,81.1036789 129.494983,76.6622074 C124.839465,72.2207358 118.016722,70 109.026756,70 L109.026756,70 L101,70 L101,86.0535117 L104.371237,86.0535117 C108.438127,86.0535117 111.461538,87.09699 113.441472,89.1839465 C115.421405,91.270903 116.411371,94.2943144 116.411371,98.2541806 L116.411371,98.2541806 L116.411371,128.755853 C116.411371,133.67893 117.133779,137.371237 118.578595,139.832776 C120.023411,142.294314 122.404682,144.060201 125.722408,145.130435 C122.404682,146.200669 120.023411,147.966555 118.578595,150.428094 C117.133779,152.889632 116.411371,156.58194 116.411371,161.505017 L116.411371,161.505017 L116.411371,192.006689 C116.411371,195.966555 115.421405,198.989967 113.441472,201.076923 C111.461538,203.16388 108.438127,204.207358 104.371237,204.207358 L104.371237,204.207358 L101,204.207358 L101,220.26087 L109.026756,220.26087 Z" id="}" fill="#63666B" fill-rule="nonzero"></path>
        <path d="M752.026756,220.26087 C761.016722,220.26087 767.839465,218.040134 772.494983,213.598662 C777.150502,209.157191 779.478261,202.655518 779.478261,194.093645 L779.478261,194.093645 L779.478261,161.023411 C779.478261,158.454849 780.093645,156.528428 781.324415,155.244147 C782.555184,153.959866 784.294314,153.317726 786.541806,153.317726 L786.541806,153.317726 L792,153.317726 L792,136.943144 L786.541806,136.943144 C784.294314,136.943144 782.555184,136.301003 781.324415,135.016722 C780.093645,133.732441 779.478261,131.80602 779.478261,129.237458 L779.478261,129.237458 L779.478261,96.1672241 C779.478261,87.6053512 777.150502,81.1036789 772.494983,76.6622074 C767.839465,72.2207358 761.016722,70 752.026756,70 L752.026756,70 L744,70 L744,86.0535117 L747.371237,86.0535117 C751.438127,86.0535117 754.461538,87.09699 756.441472,89.1839465 C758.421405,91.270903 759.411371,94.2943144 759.411371,98.2541806 L759.411371,98.2541806 L759.411371,128.755853 C759.411371,133.67893 760.133779,137.371237 761.578595,139.832776 C763.023411,142.294314 765.404682,144.060201 768.722408,145.130435 C765.404682,146.200669 763.023411,147.966555 761.578595,150.428094 C760.133779,152.889632 759.411371,156.58194 759.411371,161.505017 L759.411371,161.505017 L759.411371,192.006689 C759.411371,195.966555 758.421405,198.989967 756.441472,201.076923 C754.461538,203.16388 751.438127,204.207358 747.371237,204.207358 L747.371237,204.207358 L744,204.207358 L744,220.26087 L752.026756,220.26087 Z" id="}-copy" fill="#63666B" fill-rule="nonzero" transform="translate(768.000000, 145.130435) scale(-1, 1) translate(-768.000000, -145.130435) "></path>
        <path id="Line-10" d="M392.06186,78.6502643 L401.978638,80.3554115 L394.664454,87.265745 L393.507,83.436 L305.644589,109.978638 L305.165951,110.123226 L304.876774,109.165951 L305.355411,109.021362 L393.218,82.479 L392.06186,78.6502643 Z" fill="#979797" fill-rule="nonzero"></path>
        <path id="Line-11" d="M392.953589,139.088781 L401.999973,143.494792 L393.047334,148.088293 L393.005,144.088 L305.505208,144.999973 L305.005235,145.005181 L304.994819,144.005235 L305.494792,144.000027 L392.995,143.088 L392.953589,139.088781 Z" fill="#979797" fill-rule="nonzero"></path>
        <path id="Line-12" d="M305.148095,179.886679 L305.630708,180.017387 L393.426,203.795 L394.471945,199.93445 L401.982613,206.630708 L392.119206,208.621487 L393.164,204.76 L305.369292,180.982613 L304.886679,180.851905 L305.148095,179.886679 Z" fill="#979797" fill-rule="nonzero"></path>
        <text id="Build" font-family="Montserrat-SemiBold, Montserrat" font-size="21" font-weight="500" fill="#44464B">
            <tspan x="220" y="25">Build</tspan>
        </text>
        <text id="Server" font-family="Montserrat-SemiBold, Montserrat" font-size="21" font-weight="500" fill="#44464B">
            <tspan x="404" y="24">Server</tspan>
        </text>
        <text id="Client" font-family="Montserrat-SemiBold, Montserrat" font-size="21" font-weight="500" fill="#44464B">
            <tspan x="613" y="26">Client</tspan>
        </text>
    </g>
</svg>